# xmcd
#
# Track frame offsets:
#	150
#	14012
#	26852
#	37796
#	52456
#	65692
#	77705
#	88961
#	97243
#	105360
#	116413
#	133639
#	143057
#	151117
#
# Disc length: 2115 seconds
#
# Revision: 1
# Processed by: cddbd v1.5.2PL0 Copyright (c) Steve Scherf et al.
# Submitted via: EZCDAudioConverter 4.0.9.1
#
DISCID=c008410e
DTITLE=Jung und Frisch - Nö oane
DYEAR=2015
DGENRE=Country
TTITLE0=Dostan Polka
TTITLE1=Verena Walzer
TTITLE2=Siebn Berg und Siebn Tal
TTITLE3=Amalien Polka
TTITLE4=Isartal Landler
TTITLE5=Rainer Marsch
TTITLE6=Feslroan Polka
TTITLE7=A Herz wia a Vogerl
TTITLE8=Lustige Hoamroas
TTITLE9=Moliendo Café
TTITLE10=Beautiful seeress
TTITLE11=Komisch Pannonisch
TTITLE12=Wenn ich ein Vöglein wär
TTITLE13=Maxglaner Zigeunermarsch
EXTD=
EXTT0=
EXTT1=
EXTT2=
EXTT3=
EXTT4=
EXTT5=
EXTT6=
EXTT7=
EXTT8=
EXTT9=
EXTT10=
EXTT11=
EXTT12=
EXTT13=
PLAYORDER=
